<svg width="1000" height="1000" viewBox="0 0 1000 1000" fill="none"
  xmlns="http://www.w3.org/2000/svg">
  <g clip-path="url(#clip0_104_2)">
    <circle cx="500" cy="500" r="500" fill="#F44336"/>
    <path d="M230.188 660.562C230.188 692.646 238.312 715.458 254.562 729C270.812 742.75 288.625 750.771 308 753.062V789.625C270.917 785.875 240.188 774.938 215.812 756.812C191.646 738.896 179.562 709.312 179.562 668.062V603.688C179.562 580.979 176.021 563.062 168.938 549.938C156.021 525.979 131.229 512.021 94.5625 508.062V472.438C131.438 468.062 156.229 454.417 168.938 431.5C176.021 418.792 179.562 400.562 179.562 376.812V325.875C179.562 286.708 188 255.667 204.875 232.75C221.958 209.833 256.333 196.188 308 191.812V227.438C274.458 230.354 251.75 245.146 239.875 271.812C233.417 286.396 230.188 306.604 230.188 332.438V367.438C230.188 398.688 226.333 422.646 218.625 439.312C204.667 469.521 177.583 486.5 137.375 490.25C177.375 493.792 204.458 511.292 218.625 542.75C226.333 560.042 230.188 583.583 230.188 613.375V660.562ZM861.438 490.25C821.438 486.5 794.458 469.625 780.5 439.625C772.792 422.958 768.938 398.896 768.938 367.438V332.438C768.938 304.938 765.708 284.104 759.25 269.938C747.583 244.521 724.875 230.354 691.125 227.438V191.812C744.875 196.188 781.333 212.854 800.5 241.812C813 260.354 819.25 288.375 819.25 325.875V376.812C819.25 400.146 822.792 418.271 829.875 431.188C842.792 454.729 867.688 468.479 904.562 472.438V508.062C867.896 511.812 843 525.875 829.875 550.25C822.792 563.583 819.25 581.396 819.25 603.688V668.062C819.25 710.146 807.062 739.938 782.688 757.438C758.521 774.938 728 785.667 691.125 789.625V753.062C713.417 750.146 731.958 741.188 746.75 726.188C761.542 711.396 768.938 689.521 768.938 660.562V613.375C768.938 583.375 772.792 559.833 780.5 542.75C794.667 511.292 821.646 493.792 861.438 490.25Z" fill="white"/>
    <path d="M493.875 646.516C512.286 646.516 527.417 644.602 539.266 640.773C560.411 633.664 577.729 619.992 591.219 599.758C601.974 583.534 609.721 562.753 614.461 537.414C617.195 522.284 618.562 508.247 618.562 495.305C618.562 445.539 608.628 406.893 588.758 379.367C569.07 351.841 537.26 338.078 493.328 338.078H396.805V646.516H493.875ZM342.117 291.32H504.812C560.047 291.32 602.885 310.917 633.328 350.109C660.49 385.474 674.07 430.773 674.07 486.008C674.07 528.664 666.049 567.219 650.008 601.672C621.753 662.557 573.172 693 504.266 693H342.117V291.32Z" fill="white"/>
  </g>
  <defs>
    <clipPath id="clip0_104_2">
      <rect width="1000" height="1000" fill="white"/>
    </clipPath>
  </defs>
</svg>
